<mxfile host="app.diagrams.net" modified="2024-06-17T21:19:04.527Z" agent="Mozilla/5.0 (Windows NT 10.0; Win64; x64) AppleWebKit/537.36 (KHTML, like Gecko) Chrome/125.0.0.0 Safari/537.36 Edg/125.0.0.0" etag="U3enp6BSoPvtHv_fouwE" version="24.5.5" type="github">
  <diagram id="R2lEEEUBdFMjLlhIrx00" name="Page-1">
    <mxGraphModel dx="1080" dy="695" grid="1" gridSize="10" guides="1" tooltips="1" connect="1" arrows="1" fold="1" page="1" pageScale="1" pageWidth="850" pageHeight="1100" math="0" shadow="0" extFonts="Permanent Marker^https://fonts.googleapis.com/css?family=Permanent+Marker">
      <root>
        <mxCell id="0" />
        <mxCell id="1" parent="0" />
        <mxCell id="1rXiYcd5lSGq8Ji5P_R9-1" value="Courses" style="rounded=1;arcSize=10;whiteSpace=wrap;html=1;align=center;" vertex="1" parent="1">
          <mxGeometry x="52" y="60" width="100" height="40" as="geometry" />
        </mxCell>
        <mxCell id="1rXiYcd5lSGq8Ji5P_R9-2" value="Instructor" style="rounded=1;arcSize=10;whiteSpace=wrap;html=1;align=center;" vertex="1" parent="1">
          <mxGeometry x="200" y="250" width="100" height="40" as="geometry" />
        </mxCell>
        <mxCell id="1rXiYcd5lSGq8Ji5P_R9-3" value="Topics" style="rounded=1;arcSize=10;whiteSpace=wrap;html=1;align=center;" vertex="1" parent="1">
          <mxGeometry x="375" y="60" width="100" height="40" as="geometry" />
        </mxCell>
        <mxCell id="1rXiYcd5lSGq8Ji5P_R9-4" value="Exam" style="rounded=1;arcSize=10;whiteSpace=wrap;html=1;align=center;" vertex="1" parent="1">
          <mxGeometry x="375" y="170" width="100" height="40" as="geometry" />
        </mxCell>
        <mxCell id="1rXiYcd5lSGq8Ji5P_R9-5" value="Student" style="rounded=1;arcSize=10;whiteSpace=wrap;html=1;align=center;" vertex="1" parent="1">
          <mxGeometry x="375" y="360" width="100" height="40" as="geometry" />
        </mxCell>
        <mxCell id="1rXiYcd5lSGq8Ji5P_R9-6" value="Department" style="rounded=1;arcSize=10;whiteSpace=wrap;html=1;align=center;" vertex="1" parent="1">
          <mxGeometry x="52" y="370" width="100" height="40" as="geometry" />
        </mxCell>
        <mxCell id="1rXiYcd5lSGq8Ji5P_R9-7" value="Questions" style="rounded=1;arcSize=10;whiteSpace=wrap;html=1;align=center;" vertex="1" parent="1">
          <mxGeometry x="630" y="60" width="100" height="40" as="geometry" />
        </mxCell>
        <mxCell id="1rXiYcd5lSGq8Ji5P_R9-25" value="" style="endArrow=none;html=1;rounded=0;entryX=0.5;entryY=1;entryDx=0;entryDy=0;exitX=0.25;exitY=0;exitDx=0;exitDy=0;" edge="1" parent="1" source="1rXiYcd5lSGq8Ji5P_R9-1" target="1rXiYcd5lSGq8Ji5P_R9-36">
          <mxGeometry width="50" height="50" relative="1" as="geometry">
            <mxPoint x="380" y="250" as="sourcePoint" />
            <mxPoint x="75" y="40" as="targetPoint" />
          </mxGeometry>
        </mxCell>
        <mxCell id="1rXiYcd5lSGq8Ji5P_R9-29" value="Crs_Name" style="ellipse;whiteSpace=wrap;html=1;align=center;" vertex="1" parent="1">
          <mxGeometry x="120" width="100" height="40" as="geometry" />
        </mxCell>
        <mxCell id="1rXiYcd5lSGq8Ji5P_R9-31" value="" style="endArrow=none;html=1;rounded=0;entryX=0.5;entryY=1;entryDx=0;entryDy=0;exitX=0.75;exitY=0;exitDx=0;exitDy=0;" edge="1" parent="1" source="1rXiYcd5lSGq8Ji5P_R9-1" target="1rXiYcd5lSGq8Ji5P_R9-29">
          <mxGeometry width="50" height="50" relative="1" as="geometry">
            <mxPoint x="380" y="150" as="sourcePoint" />
            <mxPoint x="430" y="100" as="targetPoint" />
          </mxGeometry>
        </mxCell>
        <mxCell id="1rXiYcd5lSGq8Ji5P_R9-36" value="Crs_Id" style="ellipse;whiteSpace=wrap;html=1;align=center;fontStyle=4;" vertex="1" parent="1">
          <mxGeometry x="30" width="80" height="40" as="geometry" />
        </mxCell>
        <mxCell id="1rXiYcd5lSGq8Ji5P_R9-39" value="" style="endArrow=none;html=1;rounded=0;entryX=0.5;entryY=1;entryDx=0;entryDy=0;exitX=0.363;exitY=0.036;exitDx=0;exitDy=0;exitPerimeter=0;" edge="1" parent="1" target="1rXiYcd5lSGq8Ji5P_R9-42" source="1rXiYcd5lSGq8Ji5P_R9-3">
          <mxGeometry width="50" height="50" relative="1" as="geometry">
            <mxPoint x="397" y="60" as="sourcePoint" />
            <mxPoint x="395" y="40" as="targetPoint" />
          </mxGeometry>
        </mxCell>
        <mxCell id="1rXiYcd5lSGq8Ji5P_R9-40" value="Topic_name" style="ellipse;whiteSpace=wrap;html=1;align=center;" vertex="1" parent="1">
          <mxGeometry x="440" width="100" height="40" as="geometry" />
        </mxCell>
        <mxCell id="1rXiYcd5lSGq8Ji5P_R9-41" value="" style="endArrow=none;html=1;rounded=0;entryX=0.5;entryY=1;entryDx=0;entryDy=0;exitX=0.75;exitY=0;exitDx=0;exitDy=0;" edge="1" parent="1" target="1rXiYcd5lSGq8Ji5P_R9-40" source="1rXiYcd5lSGq8Ji5P_R9-3">
          <mxGeometry width="50" height="50" relative="1" as="geometry">
            <mxPoint x="447" y="60" as="sourcePoint" />
            <mxPoint x="750" y="100" as="targetPoint" />
          </mxGeometry>
        </mxCell>
        <mxCell id="1rXiYcd5lSGq8Ji5P_R9-42" value="Topic_id" style="ellipse;whiteSpace=wrap;html=1;align=center;fontStyle=4;" vertex="1" parent="1">
          <mxGeometry x="350" width="80" height="40" as="geometry" />
        </mxCell>
        <mxCell id="1rXiYcd5lSGq8Ji5P_R9-43" value="" style="endArrow=none;html=1;rounded=0;entryX=0.5;entryY=0;entryDx=0;entryDy=0;exitX=0.338;exitY=1.014;exitDx=0;exitDy=0;exitPerimeter=0;" edge="1" parent="1" target="1rXiYcd5lSGq8Ji5P_R9-46" source="1rXiYcd5lSGq8Ji5P_R9-6">
          <mxGeometry width="50" height="50" relative="1" as="geometry">
            <mxPoint x="77" y="500" as="sourcePoint" />
            <mxPoint x="75" y="480" as="targetPoint" />
          </mxGeometry>
        </mxCell>
        <mxCell id="1rXiYcd5lSGq8Ji5P_R9-44" value="Dept_Name" style="ellipse;whiteSpace=wrap;html=1;align=center;" vertex="1" parent="1">
          <mxGeometry x="90" y="440" width="100" height="40" as="geometry" />
        </mxCell>
        <mxCell id="1rXiYcd5lSGq8Ji5P_R9-45" value="" style="endArrow=none;html=1;rounded=0;entryX=0.5;entryY=0;entryDx=0;entryDy=0;exitX=0.75;exitY=1;exitDx=0;exitDy=0;" edge="1" parent="1" target="1rXiYcd5lSGq8Ji5P_R9-44" source="1rXiYcd5lSGq8Ji5P_R9-6">
          <mxGeometry width="50" height="50" relative="1" as="geometry">
            <mxPoint x="127" y="500" as="sourcePoint" />
            <mxPoint x="430" y="540" as="targetPoint" />
          </mxGeometry>
        </mxCell>
        <mxCell id="1rXiYcd5lSGq8Ji5P_R9-46" value="Dept_No" style="ellipse;whiteSpace=wrap;html=1;align=center;fontStyle=4;" vertex="1" parent="1">
          <mxGeometry y="440" width="80" height="40" as="geometry" />
        </mxCell>
        <mxCell id="1rXiYcd5lSGq8Ji5P_R9-47" value="" style="endArrow=none;html=1;rounded=0;entryX=0.5;entryY=0;entryDx=0;entryDy=0;exitX=0.25;exitY=1;exitDx=0;exitDy=0;" edge="1" parent="1" target="1rXiYcd5lSGq8Ji5P_R9-50" source="1rXiYcd5lSGq8Ji5P_R9-5">
          <mxGeometry width="50" height="50" relative="1" as="geometry">
            <mxPoint x="382" y="500" as="sourcePoint" />
            <mxPoint x="380" y="480" as="targetPoint" />
          </mxGeometry>
        </mxCell>
        <mxCell id="1rXiYcd5lSGq8Ji5P_R9-48" value="St_Fname" style="ellipse;whiteSpace=wrap;html=1;align=center;" vertex="1" parent="1">
          <mxGeometry x="380" y="450" width="100" height="40" as="geometry" />
        </mxCell>
        <mxCell id="1rXiYcd5lSGq8Ji5P_R9-49" value="" style="endArrow=none;html=1;rounded=0;entryX=0.235;entryY=0.105;entryDx=0;entryDy=0;exitX=0.5;exitY=1;exitDx=0;exitDy=0;entryPerimeter=0;" edge="1" parent="1" target="1rXiYcd5lSGq8Ji5P_R9-48" source="1rXiYcd5lSGq8Ji5P_R9-5">
          <mxGeometry width="50" height="50" relative="1" as="geometry">
            <mxPoint x="432" y="500" as="sourcePoint" />
            <mxPoint x="735" y="540" as="targetPoint" />
          </mxGeometry>
        </mxCell>
        <mxCell id="1rXiYcd5lSGq8Ji5P_R9-50" value="St_id" style="ellipse;whiteSpace=wrap;html=1;align=center;fontStyle=4;" vertex="1" parent="1">
          <mxGeometry x="295" y="450" width="80" height="40" as="geometry" />
        </mxCell>
        <mxCell id="1rXiYcd5lSGq8Ji5P_R9-51" value="" style="endArrow=none;html=1;rounded=0;entryX=0.5;entryY=0;entryDx=0;entryDy=0;exitX=0.25;exitY=1;exitDx=0;exitDy=0;" edge="1" parent="1" target="1rXiYcd5lSGq8Ji5P_R9-54" source="1rXiYcd5lSGq8Ji5P_R9-2">
          <mxGeometry width="50" height="50" relative="1" as="geometry">
            <mxPoint x="202" y="380" as="sourcePoint" />
            <mxPoint x="200" y="360" as="targetPoint" />
          </mxGeometry>
        </mxCell>
        <mxCell id="1rXiYcd5lSGq8Ji5P_R9-52" value="Inst_name" style="ellipse;whiteSpace=wrap;html=1;align=center;" vertex="1" parent="1">
          <mxGeometry x="245" y="320" width="100" height="40" as="geometry" />
        </mxCell>
        <mxCell id="1rXiYcd5lSGq8Ji5P_R9-53" value="" style="endArrow=none;html=1;rounded=0;entryX=0.563;entryY=0.014;entryDx=0;entryDy=0;exitX=0.75;exitY=1;exitDx=0;exitDy=0;entryPerimeter=0;" edge="1" parent="1" target="1rXiYcd5lSGq8Ji5P_R9-52" source="1rXiYcd5lSGq8Ji5P_R9-2">
          <mxGeometry width="50" height="50" relative="1" as="geometry">
            <mxPoint x="252" y="380" as="sourcePoint" />
            <mxPoint x="555" y="420" as="targetPoint" />
          </mxGeometry>
        </mxCell>
        <mxCell id="1rXiYcd5lSGq8Ji5P_R9-54" value="Inst_id" style="ellipse;whiteSpace=wrap;html=1;align=center;fontStyle=4;" vertex="1" parent="1">
          <mxGeometry x="155" y="320" width="80" height="40" as="geometry" />
        </mxCell>
        <mxCell id="1rXiYcd5lSGq8Ji5P_R9-55" value="" style="endArrow=none;html=1;rounded=0;entryX=0.5;entryY=0;entryDx=0;entryDy=0;exitX=0.5;exitY=1;exitDx=0;exitDy=0;" edge="1" parent="1" target="1rXiYcd5lSGq8Ji5P_R9-58" source="1rXiYcd5lSGq8Ji5P_R9-4">
          <mxGeometry width="50" height="50" relative="1" as="geometry">
            <mxPoint x="382" y="280" as="sourcePoint" />
            <mxPoint x="380" y="260" as="targetPoint" />
          </mxGeometry>
        </mxCell>
        <mxCell id="1rXiYcd5lSGq8Ji5P_R9-58" value="Exam_id" style="ellipse;whiteSpace=wrap;html=1;align=center;fontStyle=4;" vertex="1" parent="1">
          <mxGeometry x="370" y="230" width="80" height="40" as="geometry" />
        </mxCell>
        <mxCell id="1rXiYcd5lSGq8Ji5P_R9-59" value="" style="endArrow=none;html=1;rounded=0;entryX=0.5;entryY=1;entryDx=0;entryDy=0;exitX=0.25;exitY=0;exitDx=0;exitDy=0;" edge="1" parent="1" target="1rXiYcd5lSGq8Ji5P_R9-62" source="1rXiYcd5lSGq8Ji5P_R9-7">
          <mxGeometry width="50" height="50" relative="1" as="geometry">
            <mxPoint x="637" y="60" as="sourcePoint" />
            <mxPoint x="635" y="40" as="targetPoint" />
          </mxGeometry>
        </mxCell>
        <mxCell id="1rXiYcd5lSGq8Ji5P_R9-60" value="Question" style="ellipse;whiteSpace=wrap;html=1;align=center;" vertex="1" parent="1">
          <mxGeometry x="680" width="100" height="40" as="geometry" />
        </mxCell>
        <mxCell id="1rXiYcd5lSGq8Ji5P_R9-61" value="" style="endArrow=none;html=1;rounded=0;entryX=0.5;entryY=1;entryDx=0;entryDy=0;exitX=0.75;exitY=0;exitDx=0;exitDy=0;" edge="1" parent="1" target="1rXiYcd5lSGq8Ji5P_R9-60" source="1rXiYcd5lSGq8Ji5P_R9-7">
          <mxGeometry width="50" height="50" relative="1" as="geometry">
            <mxPoint x="687" y="60" as="sourcePoint" />
            <mxPoint x="990" y="100" as="targetPoint" />
          </mxGeometry>
        </mxCell>
        <mxCell id="1rXiYcd5lSGq8Ji5P_R9-62" value="Q_No" style="ellipse;whiteSpace=wrap;html=1;align=center;fontStyle=4;" vertex="1" parent="1">
          <mxGeometry x="590" width="80" height="40" as="geometry" />
        </mxCell>
        <mxCell id="1rXiYcd5lSGq8Ji5P_R9-63" value="" style="endArrow=none;html=1;rounded=0;entryX=1;entryY=0;entryDx=0;entryDy=0;exitX=0;exitY=1;exitDx=0;exitDy=0;" edge="1" parent="1" target="1rXiYcd5lSGq8Ji5P_R9-66" source="1rXiYcd5lSGq8Ji5P_R9-67">
          <mxGeometry width="50" height="50" relative="1" as="geometry">
            <mxPoint x="637" y="380" as="sourcePoint" />
            <mxPoint x="635" y="360" as="targetPoint" />
          </mxGeometry>
        </mxCell>
        <mxCell id="1rXiYcd5lSGq8Ji5P_R9-64" value="Qa_Answer" style="ellipse;whiteSpace=wrap;html=1;align=center;" vertex="1" parent="1">
          <mxGeometry x="660" y="300" width="100" height="40" as="geometry" />
        </mxCell>
        <mxCell id="1rXiYcd5lSGq8Ji5P_R9-65" value="" style="endArrow=none;html=1;rounded=0;entryX=0.242;entryY=0.052;entryDx=0;entryDy=0;exitX=0.5;exitY=1;exitDx=0;exitDy=0;entryPerimeter=0;" edge="1" parent="1" target="1rXiYcd5lSGq8Ji5P_R9-64" source="1rXiYcd5lSGq8Ji5P_R9-67">
          <mxGeometry width="50" height="50" relative="1" as="geometry">
            <mxPoint x="687" y="380" as="sourcePoint" />
            <mxPoint x="990" y="420" as="targetPoint" />
          </mxGeometry>
        </mxCell>
        <mxCell id="1rXiYcd5lSGq8Ji5P_R9-66" value="QA_id" style="ellipse;whiteSpace=wrap;html=1;align=center;fontStyle=4;" vertex="1" parent="1">
          <mxGeometry x="540" y="290" width="80" height="40" as="geometry" />
        </mxCell>
        <mxCell id="1rXiYcd5lSGq8Ji5P_R9-67" value="Question_Answers" style="shape=ext;margin=3;double=1;whiteSpace=wrap;html=1;align=center;" vertex="1" parent="1">
          <mxGeometry x="615" y="230" width="130" height="40" as="geometry" />
        </mxCell>
        <mxCell id="1rXiYcd5lSGq8Ji5P_R9-68" value="St_Lname" style="ellipse;whiteSpace=wrap;html=1;align=center;" vertex="1" parent="1">
          <mxGeometry x="490" y="450" width="100" height="40" as="geometry" />
        </mxCell>
        <mxCell id="1rXiYcd5lSGq8Ji5P_R9-69" value="" style="endArrow=none;html=1;rounded=0;entryX=0;entryY=0;entryDx=0;entryDy=0;exitX=0.75;exitY=1;exitDx=0;exitDy=0;" edge="1" parent="1" source="1rXiYcd5lSGq8Ji5P_R9-5" target="1rXiYcd5lSGq8Ji5P_R9-68">
          <mxGeometry width="50" height="50" relative="1" as="geometry">
            <mxPoint x="435" y="410" as="sourcePoint" />
            <mxPoint x="459" y="454" as="targetPoint" />
          </mxGeometry>
        </mxCell>
        <mxCell id="1rXiYcd5lSGq8Ji5P_R9-71" value="Qa_letter" style="ellipse;whiteSpace=wrap;html=1;align=center;" vertex="1" parent="1">
          <mxGeometry x="590" y="340" width="100" height="40" as="geometry" />
        </mxCell>
        <mxCell id="1rXiYcd5lSGq8Ji5P_R9-72" value="" style="endArrow=none;html=1;rounded=0;exitX=0.25;exitY=1;exitDx=0;exitDy=0;entryX=0.5;entryY=0;entryDx=0;entryDy=0;" edge="1" parent="1" target="1rXiYcd5lSGq8Ji5P_R9-71" source="1rXiYcd5lSGq8Ji5P_R9-67">
          <mxGeometry width="50" height="50" relative="1" as="geometry">
            <mxPoint x="687" y="450" as="sourcePoint" />
            <mxPoint x="640" y="340" as="targetPoint" />
          </mxGeometry>
        </mxCell>
        <mxCell id="1rXiYcd5lSGq8Ji5P_R9-73" value="Qa_isTrue" style="ellipse;whiteSpace=wrap;html=1;align=center;" vertex="1" parent="1">
          <mxGeometry x="740" y="340" width="100" height="40" as="geometry" />
        </mxCell>
        <mxCell id="1rXiYcd5lSGq8Ji5P_R9-74" value="" style="endArrow=none;html=1;rounded=0;entryX=0.5;entryY=0;entryDx=0;entryDy=0;exitX=1;exitY=1;exitDx=0;exitDy=0;" edge="1" parent="1" target="1rXiYcd5lSGq8Ji5P_R9-73" source="1rXiYcd5lSGq8Ji5P_R9-67">
          <mxGeometry width="50" height="50" relative="1" as="geometry">
            <mxPoint x="767" y="320" as="sourcePoint" />
            <mxPoint x="1070" y="360" as="targetPoint" />
          </mxGeometry>
        </mxCell>
      </root>
    </mxGraphModel>
  </diagram>
</mxfile>
